<?xml version="1.0" encoding="utf-8"?>
<svg viewBox="0 0 500 500" xmlns="http://www.w3.org/2000/svg" xmlns:xlink="http://www.w3.org/1999/xlink" xmlns:bx="https://boxy-svg.com">
  <defs>
    <linearGradient id="gradient-5" bx:pinned="true">
      <stop offset="0.199" style="stop-color: rgb(208, 190, 212);"/>
      <stop offset="0.834" style="stop-color: rgb(124, 135, 237);"/>
    </linearGradient>
    <linearGradient id="gradient-5-1" gradientUnits="userSpaceOnUse" x1="251.174" y1="180.354" x2="251.174" y2="321.502" xlink:href="#gradient-5"/>
    <linearGradient id="gradient-5-2" gradientUnits="userSpaceOnUse" x1="251.174" y1="180.354" x2="251.174" y2="321.502" xlink:href="#gradient-5"/>
    <linearGradient id="gradient-5-3" gradientUnits="userSpaceOnUse" x1="251.174" y1="180.354" x2="251.174" y2="321.502" xlink:href="#gradient-5"/>
    <linearGradient id="gradient-5-4" gradientUnits="userSpaceOnUse" x1="132.907" y1="34.207" x2="132.907" y2="238.034" xlink:href="#gradient-5"/>
    <linearGradient id="gradient-5-5" gradientUnits="userSpaceOnUse" x1="132.995" y1="33.74" x2="132.995" y2="238.671" xlink:href="#gradient-5"/>
    <linearGradient id="gradient-5-6" gradientUnits="userSpaceOnUse" x1="132.995" y1="33.74" x2="132.995" y2="238.671" xlink:href="#gradient-5"/>
    <linearGradient id="gradient-5-7" gradientUnits="userSpaceOnUse" x1="132.995" y1="33.74" x2="132.995" y2="238.671" xlink:href="#gradient-5"/>
    <linearGradient id="gradient-5-8" gradientUnits="userSpaceOnUse" x1="371.098" y1="34.098" x2="371.098" y2="240.742" xlink:href="#gradient-5"/>
    <linearGradient id="gradient-5-9" gradientUnits="userSpaceOnUse" x1="371.047" y1="33.766" x2="371.047" y2="241.497" xlink:href="#gradient-5"/>
    <linearGradient id="gradient-5-10" gradientUnits="userSpaceOnUse" x1="371.047" y1="33.766" x2="371.047" y2="241.497" xlink:href="#gradient-5"/>
    <linearGradient id="gradient-5-11" gradientUnits="userSpaceOnUse" x1="371.047" y1="33.766" x2="371.047" y2="241.497" xlink:href="#gradient-5"/>
    <linearGradient id="gradient-5-12" gradientUnits="userSpaceOnUse" x1="372.928" y1="258.114" x2="372.928" y2="464.758" xlink:href="#gradient-5"/>
    <linearGradient id="gradient-5-13" gradientUnits="userSpaceOnUse" x1="372.715" y1="257.53" x2="372.715" y2="465.261" xlink:href="#gradient-5"/>
    <linearGradient id="gradient-5-14" gradientUnits="userSpaceOnUse" x1="372.715" y1="257.53" x2="372.715" y2="465.261" xlink:href="#gradient-5"/>
    <linearGradient id="gradient-5-15" gradientUnits="userSpaceOnUse" x1="372.715" y1="257.53" x2="372.715" y2="465.261" xlink:href="#gradient-5"/>
    <linearGradient id="gradient-5-16" gradientUnits="userSpaceOnUse" x1="125.458" y1="254.252" x2="125.458" y2="460.896" xlink:href="#gradient-5"/>
    <linearGradient id="gradient-5-17" gradientUnits="userSpaceOnUse" x1="125.523" y1="253.502" x2="125.523" y2="461.233" xlink:href="#gradient-5"/>
    <linearGradient id="gradient-5-18" gradientUnits="userSpaceOnUse" x1="125.523" y1="253.502" x2="125.523" y2="461.233" xlink:href="#gradient-5"/>
    <linearGradient id="gradient-5-19" gradientUnits="userSpaceOnUse" x1="125.523" y1="253.502" x2="125.523" y2="461.233" xlink:href="#gradient-5"/>
  </defs>
  <ellipse style="stroke-linecap: round; stroke-miterlimit: 1; stroke-width: 28px; stroke: rgb(51, 51, 51); fill: rgb(124, 135, 237);" cx="251.174" cy="250.928" rx="71.429" ry="70.074"/>
  <path d="M 323.103 250.928 C 323.103 270.382 315.022 288.091 302.032 300.835 C 289.043 313.578 270.999 321.502 251.174 321.502 C 231.349 321.502 213.305 313.578 200.316 300.835 C 187.326 288.091 179.245 270.382 179.245 250.928 C 179.245 231.474 187.326 213.765 200.316 201.021 C 213.305 188.278 231.349 180.354 251.174 180.354 C 270.999 180.354 289.043 188.278 302.032 201.021 C 315.022 213.765 323.103 231.474 323.103 250.928 Z M 301.332 201.735 C 288.469 189.116 270.798 181.354 251.174 181.354 C 231.55 181.354 213.879 189.116 201.016 201.735 C 188.154 214.353 180.245 231.681 180.245 250.928 C 180.245 270.175 188.154 287.503 201.016 300.121 C 213.879 312.74 231.55 320.502 251.174 320.502 C 270.798 320.502 288.469 312.74 301.332 300.121 C 314.194 287.503 322.103 270.175 322.103 250.928 C 322.103 231.681 314.194 214.353 301.332 201.735 Z" style="stroke-width: 28px; stroke: rgb(51, 51, 51); fill: url(#gradient-5-1);"/>
  <path d="M 323.103 250.928 C 323.103 270.382 315.022 288.091 302.032 300.835 C 289.043 313.578 270.999 321.502 251.174 321.502 C 231.349 321.502 213.305 313.578 200.316 300.835 C 187.326 288.091 179.245 270.382 179.245 250.928 C 179.245 231.474 187.326 213.765 200.316 201.021 C 213.305 188.278 231.349 180.354 251.174 180.354 C 270.999 180.354 289.043 188.278 302.032 201.021 C 315.022 213.765 323.103 231.474 323.103 250.928 Z M 301.332 201.735 C 288.469 189.116 270.798 181.354 251.174 181.354 C 231.55 181.354 213.879 189.116 201.016 201.735 C 188.154 214.353 180.245 231.681 180.245 250.928 C 180.245 270.175 188.154 287.503 201.016 300.121 C 213.879 312.74 231.55 320.502 251.174 320.502 C 270.798 320.502 288.469 312.74 301.332 300.121 C 314.194 287.503 322.103 270.175 322.103 250.928 C 322.103 231.681 314.194 214.353 301.332 201.735 Z" style="stroke-width: 28px; stroke: rgb(51, 51, 51); fill: url(#gradient-5-2);"/>
  <path d="M 323.103 250.928 C 323.103 270.382 315.022 288.091 302.032 300.835 C 289.043 313.578 270.999 321.502 251.174 321.502 C 231.349 321.502 213.305 313.578 200.316 300.835 C 187.326 288.091 179.245 270.382 179.245 250.928 C 179.245 231.474 187.326 213.765 200.316 201.021 C 213.305 188.278 231.349 180.354 251.174 180.354 C 270.999 180.354 289.043 188.278 302.032 201.021 C 315.022 213.765 323.103 231.474 323.103 250.928 Z M 301.332 201.735 C 288.469 189.116 270.798 181.354 251.174 181.354 C 231.55 181.354 213.879 189.116 201.016 201.735 C 188.154 214.353 180.245 231.681 180.245 250.928 C 180.245 270.175 188.154 287.503 201.016 300.121 C 213.879 312.74 231.55 320.502 251.174 320.502 C 270.798 320.502 288.469 312.74 301.332 300.121 C 314.194 287.503 322.103 270.175 322.103 250.928 C 322.103 231.681 314.194 214.353 301.332 201.735 Z" style="stroke-width: 28px; stroke: rgb(51, 51, 51); fill: url(#gradient-5-3);"/>
  <path style="stroke-linecap: round; stroke-miterlimit: 1; stroke-width: 28px; stroke: rgb(51, 51, 51); fill: url(#gradient-5-4);" d="M 160.854 238.034 C 97.215 204.593 105.225 209.599 63.915 179.269 C 22.605 148.939 159.071 21.366 186.696 35.261 C 214.322 49.156 186.397 122.832 186.397 122.832 C 186.887 118.41 181.562 173.498 209.626 203.846 C 208.098 206.451 181.093 207.196 160.854 238.034 Z" transform="matrix(0.975743, -0.218918, 0.218918, 0.975743, -26.57537, 32.397547)"/>
  <path d="M 160.642 238.46 C 128.825 221.74 114.905 214.625 103.773 207.896 C 92.635 201.162 84.292 194.818 63.64 179.655 C 58.377 175.791 55.889 170.26 55.718 163.799 C 55.548 157.363 57.629 149.832 61.354 141.791 C 68.793 125.734 82.892 107.312 99.114 90.318 C 115.335 73.326 133.736 57.697 149.795 47.2 C 165.871 36.692 179.832 31.314 186.942 34.797 C 193.826 38.317 197.407 45.5 198.743 54.2 C 200.077 62.882 199.287 73.215 197.621 83.149 C 194.289 103.021 187.642 120.963 186.945 122.833 C 186.784 126.754 183.983 175.452 210.014 203.49 L 210.281 203.778 L 210.078 204.082 C 209.128 205.506 201.889 206.456 192.487 210.79 C 183.05 215.14 171.342 222.943 161.293 238.291 L 161.044 238.671 L 160.642 238.46 Z M 192.068 209.882 C 201.611 205.482 208.399 205.018 208.977 203.837 C 183.137 175.378 185.826 125.968 185.949 122.714 L 185.952 122.633 L 185.981 122.558 C 186.495 121.183 193.318 102.763 196.635 82.984 C 198.294 73.094 199.071 62.922 197.755 54.352 C 196.441 45.8 193.153 38.984 186.492 35.691 C 179.79 32.226 166.333 37.585 150.343 48.037 C 134.336 58.499 116.022 74.054 99.838 91.009 C 83.653 107.963 69.655 126.253 62.262 142.211 C 58.571 150.178 56.552 157.482 56.718 163.773 C 56.884 170.041 59.167 175.131 64.232 178.849 C 84.89 194.016 93.197 200.334 104.291 207.04 C 115.392 213.751 128.885 220.642 160.707 237.364 C 170.841 222.123 182.561 214.265 192.068 209.882 Z" style="stroke-width: 28px; stroke: rgb(51, 51, 51); fill: url(#gradient-5-5);" transform="matrix(0.975743, -0.218918, 0.218918, 0.975743, -26.591822, 32.418839)"/>
  <path d="M 160.642 238.46 C 128.825 221.74 114.905 214.625 103.773 207.896 C 92.635 201.162 84.292 194.818 63.64 179.655 C 58.377 175.791 55.889 170.26 55.718 163.799 C 55.548 157.363 57.629 149.832 61.354 141.791 C 68.793 125.734 82.892 107.312 99.114 90.318 C 115.335 73.326 133.736 57.697 149.795 47.2 C 165.871 36.692 179.832 31.314 186.942 34.797 C 193.826 38.317 197.407 45.5 198.743 54.2 C 200.077 62.882 199.287 73.215 197.621 83.149 C 194.289 103.021 187.642 120.963 186.945 122.833 C 186.784 126.754 183.983 175.452 210.014 203.49 L 210.281 203.778 L 210.078 204.082 C 209.128 205.506 201.889 206.456 192.487 210.79 C 183.05 215.14 171.342 222.943 161.293 238.291 L 161.044 238.671 L 160.642 238.46 Z M 192.068 209.882 C 201.611 205.482 208.399 205.018 208.977 203.837 C 183.137 175.378 185.826 125.968 185.949 122.714 L 185.952 122.633 L 185.981 122.558 C 186.495 121.183 193.318 102.763 196.635 82.984 C 198.294 73.094 199.071 62.922 197.755 54.352 C 196.441 45.8 193.153 38.984 186.492 35.691 C 179.79 32.226 166.333 37.585 150.343 48.037 C 134.336 58.499 116.022 74.054 99.838 91.009 C 83.653 107.963 69.655 126.253 62.262 142.211 C 58.571 150.178 56.552 157.482 56.718 163.773 C 56.884 170.041 59.167 175.131 64.232 178.849 C 84.89 194.016 93.197 200.334 104.291 207.04 C 115.392 213.751 128.885 220.642 160.707 237.364 C 170.841 222.123 182.561 214.265 192.068 209.882 Z" style="stroke-width: 28px; stroke: rgb(51, 51, 51); fill: url(#gradient-5-6);" transform="matrix(0.975743, -0.218918, 0.218918, 0.975743, -26.591822, 32.418839)"/>
  <path d="M 160.642 238.46 C 128.825 221.74 114.905 214.625 103.773 207.896 C 92.635 201.162 84.292 194.818 63.64 179.655 C 58.377 175.791 55.889 170.26 55.718 163.799 C 55.548 157.363 57.629 149.832 61.354 141.791 C 68.793 125.734 82.892 107.312 99.114 90.318 C 115.335 73.326 133.736 57.697 149.795 47.2 C 165.871 36.692 179.832 31.314 186.942 34.797 C 193.826 38.317 197.407 45.5 198.743 54.2 C 200.077 62.882 199.287 73.215 197.621 83.149 C 194.289 103.021 187.642 120.963 186.945 122.833 C 186.784 126.754 183.983 175.452 210.014 203.49 L 210.281 203.778 L 210.078 204.082 C 209.128 205.506 201.889 206.456 192.487 210.79 C 183.05 215.14 171.342 222.943 161.293 238.291 L 161.044 238.671 L 160.642 238.46 Z M 192.068 209.882 C 201.611 205.482 208.399 205.018 208.977 203.837 C 183.137 175.378 185.826 125.968 185.949 122.714 L 185.952 122.633 L 185.981 122.558 C 186.495 121.183 193.318 102.763 196.635 82.984 C 198.294 73.094 199.071 62.922 197.755 54.352 C 196.441 45.8 193.153 38.984 186.492 35.691 C 179.79 32.226 166.333 37.585 150.343 48.037 C 134.336 58.499 116.022 74.054 99.838 91.009 C 83.653 107.963 69.655 126.253 62.262 142.211 C 58.571 150.178 56.552 157.482 56.718 163.773 C 56.884 170.041 59.167 175.131 64.232 178.849 C 84.89 194.016 93.197 200.334 104.291 207.04 C 115.392 213.751 128.885 220.642 160.707 237.364 C 170.841 222.123 182.561 214.265 192.068 209.882 Z" style="stroke-width: 28px; stroke: rgb(51, 51, 51); fill: url(#gradient-5-7);" transform="matrix(0.975743, -0.218918, 0.218918, 0.975743, -26.591822, 32.418839)"/>
  <path style="stroke-linecap: round; stroke-miterlimit: 1; stroke-width: 28px; stroke: rgb(51, 51, 51); fill: url(#gradient-5-8);" d="M 397.946 240.742 C 334.307 207.302 346.603 209.492 305.293 179.162 C 263.983 148.831 400.449 21.256 428.074 35.152 C 455.7 49.047 427.243 114.949 427.243 114.949 C 428.468 108.41 416.567 176.542 444.631 206.89 C 426.867 212.899 414.663 219.364 397.946 240.742 Z" transform="matrix(0.202343, 0.979315, -0.979315, 0.202343, 430.58669, -253.807955)"/>
  <path d="M 397.465 241.303 C 365.632 224.575 352.764 216.743 342.701 209.306 C 332.63 201.862 325.378 194.826 304.749 179.683 C 299.505 175.793 296.998 170.287 296.827 163.827 C 296.657 157.39 298.738 149.859 302.463 141.818 C 309.902 125.761 324.001 107.338 340.223 90.345 C 356.444 73.352 374.845 57.722 390.904 47.225 C 406.98 36.717 420.941 31.34 428.051 34.823 C 434.874 38.307 438.422 44.937 439.737 52.843 C 441.05 60.733 440.246 70.03 438.559 78.948 C 435.185 96.788 428.418 112.989 427.548 115.046 C 426.941 120.205 419.078 179.04 444.75 206.669 L 445.276 207.234 L 444.543 207.482 C 426.816 213.475 414.729 219.857 398.092 241.168 L 397.835 241.497 L 397.465 241.303 Z M 443.502 206.78 C 418.319 178.515 426.025 119.506 426.563 114.859 L 426.571 114.788 L 426.599 114.721 C 427.336 112.985 434.221 96.5 437.576 78.763 C 439.254 69.893 440.043 60.774 438.751 53.007 C 437.462 45.256 434.207 38.987 427.601 35.717 C 420.899 32.252 407.442 37.61 391.452 48.062 C 375.445 58.525 357.131 74.08 340.947 91.035 C 324.762 107.99 310.764 126.28 303.371 142.239 C 299.68 150.206 297.661 157.51 297.827 163.801 C 297.993 170.068 300.257 175.185 305.341 178.877 C 326.022 194.064 333.277 201.098 343.295 208.502 C 353.322 215.912 365.756 223.511 397.562 240.224 C 414.224 219.042 426.087 212.74 443.502 206.78 Z" style="stroke-width: 28px; stroke: rgb(51, 51, 51); fill: url(#gradient-5-9);" transform="matrix(0.202343, 0.979315, -0.979315, 0.202343, 430.752472, -253.588785)"/>
  <path d="M 397.465 241.303 C 365.632 224.575 352.764 216.743 342.701 209.306 C 332.63 201.862 325.378 194.826 304.749 179.683 C 299.505 175.793 296.998 170.287 296.827 163.827 C 296.657 157.39 298.738 149.859 302.463 141.818 C 309.902 125.761 324.001 107.338 340.223 90.345 C 356.444 73.352 374.845 57.722 390.904 47.225 C 406.98 36.717 420.941 31.34 428.051 34.823 C 434.874 38.307 438.422 44.937 439.737 52.843 C 441.05 60.733 440.246 70.03 438.559 78.948 C 435.185 96.788 428.418 112.989 427.548 115.046 C 426.941 120.205 419.078 179.04 444.75 206.669 L 445.276 207.234 L 444.543 207.482 C 426.816 213.475 414.729 219.857 398.092 241.168 L 397.835 241.497 L 397.465 241.303 Z M 443.502 206.78 C 418.319 178.515 426.025 119.506 426.563 114.859 L 426.571 114.788 L 426.599 114.721 C 427.336 112.985 434.221 96.5 437.576 78.763 C 439.254 69.893 440.043 60.774 438.751 53.007 C 437.462 45.256 434.207 38.987 427.601 35.717 C 420.899 32.252 407.442 37.61 391.452 48.062 C 375.445 58.525 357.131 74.08 340.947 91.035 C 324.762 107.99 310.764 126.28 303.371 142.239 C 299.68 150.206 297.661 157.51 297.827 163.801 C 297.993 170.068 300.257 175.185 305.341 178.877 C 326.022 194.064 333.277 201.098 343.295 208.502 C 353.322 215.912 365.756 223.511 397.562 240.224 C 414.224 219.042 426.087 212.74 443.502 206.78 Z" style="stroke-width: 28px; stroke: rgb(51, 51, 51); fill: url(#gradient-5-10);" transform="matrix(0.202343, 0.979315, -0.979315, 0.202343, 430.752472, -253.588785)"/>
  <path d="M 397.465 241.303 C 365.632 224.575 352.764 216.743 342.701 209.306 C 332.63 201.862 325.378 194.826 304.749 179.683 C 299.505 175.793 296.998 170.287 296.827 163.827 C 296.657 157.39 298.738 149.859 302.463 141.818 C 309.902 125.761 324.001 107.338 340.223 90.345 C 356.444 73.352 374.845 57.722 390.904 47.225 C 406.98 36.717 420.941 31.34 428.051 34.823 C 434.874 38.307 438.422 44.937 439.737 52.843 C 441.05 60.733 440.246 70.03 438.559 78.948 C 435.185 96.788 428.418 112.989 427.548 115.046 C 426.941 120.205 419.078 179.04 444.75 206.669 L 445.276 207.234 L 444.543 207.482 C 426.816 213.475 414.729 219.857 398.092 241.168 L 397.835 241.497 L 397.465 241.303 Z M 443.502 206.78 C 418.319 178.515 426.025 119.506 426.563 114.859 L 426.571 114.788 L 426.599 114.721 C 427.336 112.985 434.221 96.5 437.576 78.763 C 439.254 69.893 440.043 60.774 438.751 53.007 C 437.462 45.256 434.207 38.987 427.601 35.717 C 420.899 32.252 407.442 37.61 391.452 48.062 C 375.445 58.525 357.131 74.08 340.947 91.035 C 324.762 107.99 310.764 126.28 303.371 142.239 C 299.68 150.206 297.661 157.51 297.827 163.801 C 297.993 170.068 300.257 175.185 305.341 178.877 C 326.022 194.064 333.277 201.098 343.295 208.502 C 353.322 215.912 365.756 223.511 397.562 240.224 C 414.224 219.042 426.087 212.74 443.502 206.78 Z" style="stroke-width: 28px; stroke: rgb(51, 51, 51); fill: url(#gradient-5-11);" transform="matrix(0.202343, 0.979315, -0.979315, 0.202343, 430.752472, -253.588785)"/>
  <path style="stroke-linecap: round; stroke-miterlimit: 1; stroke-width: 28px; stroke: rgb(51, 51, 51); fill: url(#gradient-5-12);" d="M 399.776 464.758 C 336.137 431.318 348.433 433.508 307.123 403.178 C 265.813 372.847 402.279 245.272 429.904 259.168 C 457.53 273.063 429.974 346.982 429.974 346.982 C 432.67 345.701 418.397 400.558 446.461 430.906 C 428.697 436.915 416.493 443.38 399.776 464.758 Z" transform="matrix(-0.96729, 0.253673, -0.253673, -0.96729, 825.344693, 616.4477)"/>
  <path d="M 399.134 465.067 C 367.301 448.339 354.433 440.507 344.37 433.07 C 334.299 425.626 327.047 418.59 306.418 403.447 C 301.174 399.557 298.667 394.051 298.496 387.591 C 298.326 381.154 300.407 373.623 304.132 365.582 C 311.571 349.525 325.67 331.102 341.892 314.109 C 358.113 297.116 376.514 281.486 392.573 270.989 C 408.649 260.481 422.61 255.104 429.72 258.587 C 436.739 262.177 440.343 269.587 441.655 278.544 C 442.965 287.484 442.104 298.106 440.383 308.235 C 437.416 325.69 431.881 341.854 430.404 346 L 429.35 346.396 C 429.459 346.356 429.658 346.314 429.781 346.339 C 429.909 346.366 430.089 346.488 430.163 346.58 C 430.17 346.59 430.177 346.6 430.184 346.61 C 430.086 346.882 430.033 347.023 430.033 347.023 L 430.186 346.613 C 430.281 346.753 430.352 346.979 430.381 347.172 C 430.437 347.548 430.435 348.137 430.396 348.869 C 430.318 350.318 430.09 352.485 429.83 355.201 C 429.309 360.635 428.657 368.293 428.795 376.941 C 429.072 394.253 432.45 415.388 446.419 430.433 L 446.944 430.998 L 446.212 431.246 C 428.485 437.239 416.398 443.621 399.761 464.932 L 399.504 465.261 L 399.134 465.067 Z M 445.17 430.544 C 431.504 415.28 428.073 394.341 427.796 376.957 C 427.657 368.258 428.314 360.545 428.834 355.105 C 429.095 352.385 429.32 350.239 429.397 348.815 C 429.435 348.109 429.436 347.621 429.392 347.32 C 429.391 347.317 429.391 347.315 429.391 347.312 L 428.852 347.33 L 429.096 346.673 C 429.096 346.673 435.969 328.238 439.397 308.068 C 441.111 297.981 441.959 287.518 440.666 278.689 C 439.375 269.879 436.064 262.839 429.27 259.481 C 422.568 256.016 409.111 261.374 393.121 271.826 C 377.114 282.289 358.8 297.844 342.616 314.799 C 326.431 331.754 312.433 350.044 305.04 366.003 C 301.349 373.97 299.33 381.273 299.496 387.565 C 299.662 393.832 301.926 398.949 307.01 402.641 C 327.691 417.828 334.946 424.862 344.964 432.266 C 354.991 439.676 367.425 447.275 399.231 463.988 C 415.893 442.806 427.755 436.504 445.17 430.544 Z" style="stroke-width: 28px; stroke: rgb(51, 51, 51); fill: url(#gradient-5-13);" transform="matrix(-0.96729, 0.253673, -0.253673, -0.96729, 824.915087, 616.421827)"/>
  <path d="M 399.134 465.067 C 367.301 448.339 354.433 440.507 344.37 433.07 C 334.299 425.626 327.047 418.59 306.418 403.447 C 301.174 399.557 298.667 394.051 298.496 387.591 C 298.326 381.154 300.407 373.623 304.132 365.582 C 311.571 349.525 325.67 331.102 341.892 314.109 C 358.113 297.116 376.514 281.486 392.573 270.989 C 408.649 260.481 422.61 255.104 429.72 258.587 C 436.739 262.177 440.343 269.587 441.655 278.544 C 442.965 287.484 442.104 298.106 440.383 308.235 C 437.416 325.69 431.881 341.854 430.404 346 L 429.35 346.396 C 429.459 346.356 429.658 346.314 429.781 346.339 C 429.909 346.366 430.089 346.488 430.163 346.58 C 430.17 346.59 430.177 346.6 430.184 346.61 C 430.086 346.882 430.033 347.023 430.033 347.023 L 430.186 346.613 C 430.281 346.753 430.352 346.979 430.381 347.172 C 430.437 347.548 430.435 348.137 430.396 348.869 C 430.318 350.318 430.09 352.485 429.83 355.201 C 429.309 360.635 428.657 368.293 428.795 376.941 C 429.072 394.253 432.45 415.388 446.419 430.433 L 446.944 430.998 L 446.212 431.246 C 428.485 437.239 416.398 443.621 399.761 464.932 L 399.504 465.261 L 399.134 465.067 Z M 445.17 430.544 C 431.504 415.28 428.073 394.341 427.796 376.957 C 427.657 368.258 428.314 360.545 428.834 355.105 C 429.095 352.385 429.32 350.239 429.397 348.815 C 429.435 348.109 429.436 347.621 429.392 347.32 C 429.391 347.317 429.391 347.315 429.391 347.312 L 428.852 347.33 L 429.096 346.673 C 429.096 346.673 435.969 328.238 439.397 308.068 C 441.111 297.981 441.959 287.518 440.666 278.689 C 439.375 269.879 436.064 262.839 429.27 259.481 C 422.568 256.016 409.111 261.374 393.121 271.826 C 377.114 282.289 358.8 297.844 342.616 314.799 C 326.431 331.754 312.433 350.044 305.04 366.003 C 301.349 373.97 299.33 381.273 299.496 387.565 C 299.662 393.832 301.926 398.949 307.01 402.641 C 327.691 417.828 334.946 424.862 344.964 432.266 C 354.991 439.676 367.425 447.275 399.231 463.988 C 415.893 442.806 427.755 436.504 445.17 430.544 Z" style="stroke-width: 28px; stroke: rgb(51, 51, 51); fill: url(#gradient-5-14);" transform="matrix(-0.96729, 0.253673, -0.253673, -0.96729, 824.915087, 616.421827)"/>
  <path d="M 399.134 465.067 C 367.301 448.339 354.433 440.507 344.37 433.07 C 334.299 425.626 327.047 418.59 306.418 403.447 C 301.174 399.557 298.667 394.051 298.496 387.591 C 298.326 381.154 300.407 373.623 304.132 365.582 C 311.571 349.525 325.67 331.102 341.892 314.109 C 358.113 297.116 376.514 281.486 392.573 270.989 C 408.649 260.481 422.61 255.104 429.72 258.587 C 436.739 262.177 440.343 269.587 441.655 278.544 C 442.965 287.484 442.104 298.106 440.383 308.235 C 437.416 325.69 431.881 341.854 430.404 346 L 429.35 346.396 C 429.459 346.356 429.658 346.314 429.781 346.339 C 429.909 346.366 430.089 346.488 430.163 346.58 C 430.17 346.59 430.177 346.6 430.184 346.61 C 430.086 346.882 430.033 347.023 430.033 347.023 L 430.186 346.613 C 430.281 346.753 430.352 346.979 430.381 347.172 C 430.437 347.548 430.435 348.137 430.396 348.869 C 430.318 350.318 430.09 352.485 429.83 355.201 C 429.309 360.635 428.657 368.293 428.795 376.941 C 429.072 394.253 432.45 415.388 446.419 430.433 L 446.944 430.998 L 446.212 431.246 C 428.485 437.239 416.398 443.621 399.761 464.932 L 399.504 465.261 L 399.134 465.067 Z M 445.17 430.544 C 431.504 415.28 428.073 394.341 427.796 376.957 C 427.657 368.258 428.314 360.545 428.834 355.105 C 429.095 352.385 429.32 350.239 429.397 348.815 C 429.435 348.109 429.436 347.621 429.392 347.32 C 429.391 347.317 429.391 347.315 429.391 347.312 L 428.852 347.33 L 429.096 346.673 C 429.096 346.673 435.969 328.238 439.397 308.068 C 441.111 297.981 441.959 287.518 440.666 278.689 C 439.375 269.879 436.064 262.839 429.27 259.481 C 422.568 256.016 409.111 261.374 393.121 271.826 C 377.114 282.289 358.8 297.844 342.616 314.799 C 326.431 331.754 312.433 350.044 305.04 366.003 C 301.349 373.97 299.33 381.273 299.496 387.565 C 299.662 393.832 301.926 398.949 307.01 402.641 C 327.691 417.828 334.946 424.862 344.964 432.266 C 354.991 439.676 367.425 447.275 399.231 463.988 C 415.893 442.806 427.755 436.504 445.17 430.544 Z" style="stroke-width: 28px; stroke: rgb(51, 51, 51); fill: url(#gradient-5-15);" transform="matrix(-0.96729, 0.253673, -0.253673, -0.96729, 824.915087, 616.421827)"/>
  <path style="stroke-linecap: round; stroke-miterlimit: 1; stroke-width: 28px; stroke: rgb(51, 51, 51); fill: url(#gradient-5-16);" d="M 152.306 460.896 C 88.667 427.456 100.963 429.646 59.653 399.316 C 18.343 368.985 154.809 241.41 182.434 255.306 C 210.06 269.201 186.05 340.5 186.05 340.5 C 188.746 339.219 170.927 396.696 198.991 427.044 C 181.227 433.053 169.023 439.518 152.306 460.896 Z" transform="matrix(-0.1412, -0.989981, 0.989981, -0.1412, -210.818527, 532.264863)"/>
  <path d="M 151.942 461.039 C 120.109 444.311 107.241 436.479 97.178 429.042 C 87.107 421.598 79.855 414.562 59.226 399.419 C 53.982 395.529 51.475 390.023 51.304 383.563 C 51.134 377.126 53.215 369.595 56.94 361.554 C 64.379 345.497 78.478 327.074 94.7 310.081 C 110.921 293.088 129.322 277.458 145.381 266.961 C 161.457 256.453 175.418 251.076 182.528 254.559 C 189.547 258.149 193.151 265.559 194.463 274.516 C 195.773 283.456 194.912 294.078 193.191 304.207 C 190.224 321.662 184.689 337.826 183.212 341.972 L 182.158 342.368 C 182.267 342.328 182.466 342.286 182.589 342.311 C 182.717 342.338 182.897 342.46 182.971 342.552 C 182.978 342.562 182.985 342.572 182.992 342.582 C 182.894 342.854 182.841 342.995 182.841 342.995 L 182.994 342.585 C 183.089 342.725 183.16 342.951 183.189 343.144 C 183.245 343.52 183.243 344.109 183.204 344.841 C 183.126 346.29 182.898 348.457 182.638 351.173 C 182.117 356.607 181.465 364.265 181.603 372.913 C 181.88 390.225 185.258 411.36 199.227 426.405 L 199.752 426.97 L 199.02 427.218 C 181.293 433.211 169.206 439.593 152.569 460.904 L 152.312 461.233 L 151.942 461.039 Z M 197.978 426.516 C 184.312 411.252 180.881 390.313 180.604 372.929 C 180.465 364.23 181.122 356.517 181.642 351.077 C 181.903 348.357 185.843 341.624 185.92 340.2 C 185.958 339.494 182.244 343.593 182.2 343.292 C 182.199 343.289 182.199 343.287 182.199 343.284 L 181.66 343.302 L 181.904 342.645 C 181.904 342.645 188.777 324.21 192.205 304.04 C 193.919 293.953 194.767 283.49 193.474 274.661 C 192.183 265.851 188.872 258.811 182.078 255.453 C 175.376 251.988 161.919 257.346 145.929 267.798 C 129.922 278.261 111.608 293.816 95.424 310.771 C 79.239 327.726 65.241 346.016 57.848 361.975 C 54.157 369.942 52.138 377.246 52.304 383.537 C 52.47 389.804 54.734 394.921 59.818 398.613 C 80.499 413.8 87.754 420.834 97.772 428.238 C 107.799 435.648 120.233 443.247 152.039 459.96 C 168.701 438.778 180.563 432.476 197.978 426.516 Z" style="stroke-width: 28px; stroke: rgb(51, 51, 51); fill: url(#gradient-5-17);" transform="matrix(-0.1412, -0.989981, 0.989981, -0.1412, -210.539943, 532.093264)"/>
  <path d="M 151.942 461.039 C 120.109 444.311 107.241 436.479 97.178 429.042 C 87.107 421.598 79.855 414.562 59.226 399.419 C 53.982 395.529 51.475 390.023 51.304 383.563 C 51.134 377.126 53.215 369.595 56.94 361.554 C 64.379 345.497 78.478 327.074 94.7 310.081 C 110.921 293.088 129.322 277.458 145.381 266.961 C 161.457 256.453 175.418 251.076 182.528 254.559 C 189.547 258.149 193.151 265.559 194.463 274.516 C 195.773 283.456 194.912 294.078 193.191 304.207 C 190.224 321.662 184.689 337.826 183.212 341.972 L 182.158 342.368 C 182.267 342.328 182.466 342.286 182.589 342.311 C 182.717 342.338 182.897 342.46 182.971 342.552 C 182.978 342.562 182.985 342.572 182.992 342.582 C 182.894 342.854 182.841 342.995 182.841 342.995 L 182.994 342.585 C 183.089 342.725 183.16 342.951 183.189 343.144 C 183.245 343.52 183.243 344.109 183.204 344.841 C 183.126 346.29 182.898 348.457 182.638 351.173 C 182.117 356.607 181.465 364.265 181.603 372.913 C 181.88 390.225 185.258 411.36 199.227 426.405 L 199.752 426.97 L 199.02 427.218 C 181.293 433.211 169.206 439.593 152.569 460.904 L 152.312 461.233 L 151.942 461.039 Z M 197.978 426.516 C 184.312 411.252 180.881 390.313 180.604 372.929 C 180.465 364.23 181.122 356.517 181.642 351.077 C 181.903 348.357 182.128 346.211 182.205 344.787 C 182.243 344.081 182.244 343.593 182.2 343.292 C 182.199 343.289 182.199 343.287 182.199 343.284 L 181.66 343.302 L 181.904 342.645 C 181.904 342.645 188.777 324.21 192.205 304.04 C 193.919 293.953 194.767 283.49 193.474 274.661 C 192.183 265.851 188.872 258.811 182.078 255.453 C 175.376 251.988 161.919 257.346 145.929 267.798 C 129.922 278.261 111.608 293.816 95.424 310.771 C 79.239 327.726 65.241 346.016 57.848 361.975 C 54.157 369.942 52.138 377.246 52.304 383.537 C 52.47 389.804 54.734 394.921 59.818 398.613 C 80.499 413.8 87.754 420.834 97.772 428.238 C 107.799 435.648 120.233 443.247 152.039 459.96 C 168.701 438.778 180.563 432.476 197.978 426.516 Z" style="stroke-width: 28px; stroke: rgb(51, 51, 51); fill: url(#gradient-5-18);" transform="matrix(-0.1412, -0.989981, 0.989981, -0.1412, -210.539943, 532.093264)"/>
  <path d="M 151.942 461.039 C 120.109 444.311 107.241 436.479 97.178 429.042 C 87.107 421.598 79.855 414.562 59.226 399.419 C 53.982 395.529 51.475 390.023 51.304 383.563 C 51.134 377.126 53.215 369.595 56.94 361.554 C 64.379 345.497 78.478 327.074 94.7 310.081 C 110.921 293.088 129.322 277.458 145.381 266.961 C 161.457 256.453 175.418 251.076 182.528 254.559 C 189.547 258.149 193.151 265.559 194.463 274.516 C 195.773 283.456 194.912 294.078 193.191 304.207 C 190.224 321.662 184.689 337.826 183.212 341.972 L 182.158 342.368 C 182.267 342.328 182.466 342.286 182.589 342.311 C 182.717 342.338 182.897 342.46 182.971 342.552 C 182.978 342.562 182.985 342.572 182.992 342.582 C 182.894 342.854 182.841 342.995 182.841 342.995 L 182.994 342.585 C 183.089 342.725 183.16 342.951 183.189 343.144 C 183.245 343.52 183.243 344.109 183.204 344.841 C 183.126 346.29 182.898 348.457 182.638 351.173 C 182.117 356.607 181.465 364.265 181.603 372.913 C 181.88 390.225 185.258 411.36 199.227 426.405 L 199.752 426.97 L 199.02 427.218 C 181.293 433.211 169.206 439.593 152.569 460.904 L 152.312 461.233 L 151.942 461.039 Z M 197.978 426.516 C 184.312 411.252 180.881 390.313 180.604 372.929 C 180.465 364.23 181.122 356.517 181.642 351.077 C 181.903 348.357 182.128 346.211 182.205 344.787 C 182.243 344.081 182.244 343.593 182.2 343.292 C 182.199 343.289 182.199 343.287 182.199 343.284 L 181.66 343.302 L 181.904 342.645 C 181.904 342.645 188.777 324.21 192.205 304.04 C 193.919 293.953 194.767 283.49 193.474 274.661 C 192.183 265.851 188.872 258.811 182.078 255.453 C 175.376 251.988 161.919 257.346 145.929 267.798 C 129.922 278.261 111.608 293.816 95.424 310.771 C 79.239 327.726 65.241 346.016 57.848 361.975 C 54.157 369.942 52.138 377.246 52.304 383.537 C 52.47 389.804 54.734 394.921 59.818 398.613 C 80.499 413.8 87.754 420.834 97.772 428.238 C 107.799 435.648 120.233 443.247 152.039 459.96 C 168.701 438.778 180.563 432.476 197.978 426.516 Z" style="stroke-width: 28px; stroke: rgb(51, 51, 51); fill: url(#gradient-5-19);" transform="matrix(-0.1412, -0.989981, 0.989981, -0.1412, -210.539943, 532.093264)"/>
</svg>